<?xml version="1.0" encoding="utf-8"?>
<!-- Generator: Adobe Illustrator 25.4.1, SVG Export Plug-In . SVG Version: 6.00 Build 0)  -->
<svg version="1.1" id="Layer_1" xmlns="http://www.w3.org/2000/svg" xmlns:xlink="http://www.w3.org/1999/xlink" x="0px" y="0px"
	 viewBox="0 0 1600 1144" style="enable-background:new 0 0 1600 1144;" xml:space="preserve">
<style type="text/css">
	.st0{fill:#EBF2FA;}
	.st1{fill:#3A3D3F;}
	.st2{font-family:'OpenSans-Bold';}
	.st3{font-size:22px;}
	.st4{font-family:'OpenSans';}
	.st5{fill:#FFFFFF;}
	.st6{fill:#5E5E5E;}
	.st7{fill:#243F81;}
	.st8{fill:#0CA64C;}
	.st9{fill:#F5871F;}
	.st10{fill:#4359A7;}
	.st11{fill:#1F94C2;}
	.st12{fill:#E65C84;}
	.st13{fill:#FFFFFF;stroke:#0CA64C;stroke-width:10;stroke-miterlimit:10;}
	.st14{fill:none;stroke:#F5871F;stroke-width:2;stroke-linecap:round;stroke-miterlimit:10;}
	.st15{fill:none;stroke:#1F94C2;stroke-width:2;stroke-linecap:round;stroke-miterlimit:10;}
	.st16{fill:none;stroke:#E65C84;stroke-width:2;stroke-linecap:round;stroke-miterlimit:10;}
	.st17{font-size:30px;}
	.st18{fill:#292D95;}
	.st19{fill:none;stroke:#3A3D3F;stroke-miterlimit:10;}
	.st20{fill:#EBF2FA;stroke:#E65C84;stroke-width:2;stroke-miterlimit:10;}
	.st21{fill:#EBF2FA;stroke:#0CA64C;stroke-width:2;stroke-miterlimit:10;}
	.st22{fill:#EBF2FA;stroke:#1F94C2;stroke-miterlimit:10;}
	.st23{fill:#EBF2FA;stroke:#F5871F;stroke-miterlimit:10;}
</style>
<rect x="13" y="687" class="st0" width="1574" height="443"/>
<text transform="matrix(1 0 0 1 85.0369 820.8526)"><tspan x="0" y="0" class="st1 st2 st3">Map Relationships </tspan><tspan x="0" y="29" class="st1 st2 st3">and Connections</tspan><tspan x="0" y="60" class="st1 st4 st3">Think about LinkedIn</tspan></text>
<rect x="13" y="15" class="st0" width="1574" height="656"/>
<g>
	<path class="st5" d="M797.9,644.5c-60.3,0-119-21.2-165.3-59.8c-3.5,2-7.4,3.1-11.5,3.1c-12.7,0-23.1-10.4-23.1-23.1
		c0-3.9,1-7.8,2.9-11.2c-39.8-46.7-61.7-106.2-61.7-167.6c0-61.4,21.9-120.9,61.7-167.6c-1.9-3.4-2.9-7.3-2.9-11.3
		c0-12.7,10.3-23.1,23.1-23.1c4,0,8,1.1,11.5,3.1c46.3-38.5,105-59.8,165.3-59.8s119,21.2,165.3,59.8c3.5-2,7.5-3.1,11.5-3.1
		c12.7,0,23.1,10.3,23.1,23.1c0,3.9-1,7.8-2.9,11.3c39.8,46.7,61.7,106.2,61.7,167.6c0,61.4-21.9,120.9-61.6,167.6
		c1.9,3.4,2.9,7.3,2.9,11.2c0,12.7-10.3,23.1-23.1,23.1c-4,0-7.9-1-11.4-3C917,623.2,858.2,644.5,797.9,644.5z"/>
	<path class="st1" d="M797.9,127.7c62.9,0,120.5,22.5,165.3,59.9c3.4-2,7.3-3.2,11.5-3.2c12.4,0,22.6,10.1,22.6,22.6
		c0,4.1-1.1,8-3.1,11.3c38.5,45.1,61.8,103.6,61.8,167.6c0,63.9-23.3,122.4-61.8,167.5c1.9,3.3,3,7.2,3,11.2
		c0,12.4-10.1,22.6-22.6,22.6c-4.2,0-8.1-1.1-11.5-3.1C918.5,621.4,860.8,644,797.9,644c-62.9,0-120.5-22.5-165.3-59.9
		c-3.4,2-7.3,3.2-11.5,3.2c-12.4,0-22.6-10.1-22.6-22.6c0-4.1,1.1-8,3-11.3c-38.5-45.1-61.8-103.6-61.8-167.5
		c0-64,23.3-122.5,61.8-167.6c-1.9-3.3-3.1-7.2-3.1-11.3c0-12.4,10.1-22.6,22.6-22.6c4.2,0,8.2,1.2,11.5,3.2
		C677.4,150.2,735,127.7,797.9,127.7 M797.9,126.7c-30.9,0-61.1,5.4-89.8,16c-27.5,10.2-52.9,24.9-75.6,43.7c-3.5-1.9-7.4-3-11.4-3
		c-13,0-23.6,10.6-23.6,23.6c0,3.9,1,7.8,2.8,11.2c-19.4,22.8-34.6,48.6-45.1,76.5c-11,29.1-16.5,59.8-16.5,91.2
		c0,31.4,5.6,62.1,16.5,91.2c10.5,27.9,25.7,53.6,45,76.5c-1.8,3.4-2.8,7.3-2.8,11.2c0,13,10.6,23.6,23.6,23.6c4,0,7.9-1,11.4-3
		c22.7,18.8,48.1,33.5,75.6,43.7c28.7,10.6,58.9,16,89.8,16c30.9,0,61.1-5.4,89.8-16c27.5-10.2,53-24.9,75.6-43.7
		c3.5,1.9,7.4,2.9,11.4,2.9c13,0,23.6-10.6,23.6-23.6c0-3.9-1-7.7-2.8-11.1c19.4-22.8,34.5-48.5,45-76.5
		c11-29.1,16.5-59.8,16.5-91.2c0-31.4-5.6-62.1-16.5-91.2c-10.5-27.9-25.7-53.6-45.1-76.5c1.9-3.4,2.8-7.3,2.8-11.2
		c0-13-10.6-23.6-23.6-23.6c-4,0-7.9,1-11.4,3c-22.7-18.8-48.1-33.5-75.6-43.7C859,132.1,828.8,126.7,797.9,126.7L797.9,126.7z"/>
</g>
<text transform="matrix(1 0 0 1 657.8149 54.8488)"><tspan x="0" y="0" class="st1 st2 st17">Patient to Provider</tspan><tspan x="24.4" y="40" class="st1 st4 st17">360-Degree View</tspan></text>
<g>
	<path class="st9" d="M806.5,141.3v188.1c0,25,20.2,45.2,45.2,45.2h190.6C1036.6,247.5,934,145.7,806.5,141.3z"/>
	<path class="st12" d="M806.5,442.3v188.1c127.4-4.4,230.1-106.2,235.9-233.3H851.7C826.8,397.1,806.5,417.4,806.5,442.3z"/>
	<path class="st8" d="M789.2,329.4V141.3c-127.4,4.4-230.1,106.2-235.9,233.3H744C769,374.6,789.2,354.4,789.2,329.4z"/>
	<path class="st11" d="M744,397.1H553.4c5.8,127.1,108.4,228.9,235.9,233.3V442.3C789.2,417.4,769,397.1,744,397.1z"/>
</g>
<ellipse transform="matrix(0.7071 -0.7071 0.7071 0.7071 -39.7552 678.3577)" class="st5" cx="799" cy="387.2" rx="150.8" ry="150.8"/>
<ellipse transform="matrix(0.7071 -0.7071 0.7071 0.7071 -39.7553 678.3575)" class="st18" cx="799" cy="387.2" rx="141.2" ry="141.2"/>
<g>
	<g>
		<circle class="st5" cx="621.1" cy="207" r="22.6"/>
		
			<ellipse transform="matrix(0.9299 -0.3679 0.3679 0.9299 -32.5908 243.0182)" class="st8" cx="621.1" cy="207" rx="15.9" ry="15.9"/>
	</g>
	<g>
		<circle class="st5" cx="974.7" cy="207" r="22.6"/>
		
			<ellipse transform="matrix(0.9299 -0.3679 0.3679 0.9299 -7.7877 373.1211)" class="st9" cx="974.7" cy="207" rx="15.9" ry="15.9"/>
	</g>
	<g>
		<ellipse class="st5" cx="621.1" cy="564.7" rx="22.6" ry="22.6"/>
		<ellipse class="st11" cx="621.1" cy="564.7" rx="15.9" ry="15.9"/>
	</g>
	<g>
		<circle class="st5" cx="974.7" cy="564.6" r="22.6"/>
		
			<ellipse transform="matrix(0.9299 -0.3679 0.3679 0.9299 -139.3624 398.2047)" class="st12" cx="974.7" cy="564.6" rx="15.9" ry="15.9"/>
	</g>
</g>
<g>
	<text transform="matrix(1 0 0 1 210.6862 193.2201)"><tspan x="0" y="0" class="st1 st2 st3">Predictive Insight and Analysis</tspan><tspan x="88.4" y="29" class="st1 st2 st3">for Early Identification</tspan></text>
	<text transform="matrix(1 0 0 1 1052.5669 193.2196)"><tspan x="0" y="0" class="st1 st2 st3">Longitudinal View</tspan><tspan x="0" y="31" class="st1 st4 st3">All historical data</tspan></text>
	<text transform="matrix(1 0 0 1 1052.5667 541.8086)"><tspan x="0" y="0" class="st1 st2 st3">Social Determinant Drivers</tspan><tspan x="0" y="31" class="st1 st4 st3">Support, access, geography, </tspan><tspan x="0" y="62" class="st1 st4 st3">Nascate Persona</tspan></text>
	<text transform="matrix(1 0 0 1 267.3404 543.8081)"><tspan x="0" y="0" class="st1 st2 st3">Consumer’s Behavior and</tspan><tspan x="-94.4" y="29" class="st1 st2 st3">Engagement with Delivery System</tspan><tspan x="39.2" y="60" class="st1 st4 st3">Patterns, trends, timing</tspan></text>
</g>
<g>
	<g>
		<path class="st0" d="M812.5,314.2v-7.3c0-8.1-6.5-14.6-14.6-14.6s-14.6,6.5-14.6,14.6v7.3c0,8.1,6.5,14.6,14.6,14.6
			S812.5,322.3,812.5,314.2z"/>
		<path class="st0" d="M808.9,328.8h-11h-11c-12.1,0-21.9,9.8-21.9,21.9v47.5h11l7.3,81.2h29.2l7.3-81.2h11v-47.5
			C830.8,338.6,821,328.8,808.9,328.8z"/>
	</g>
</g>
<text transform="matrix(1 0 0 1 648.8208 741.8488)"><tspan x="0" y="0" class="st1 st2 st17">Provider to Provider</tspan><tspan x="56" y="40" class="st1 st4 st17">Social Graphs</tspan></text>
<circle class="st1" cx="59.5" cy="905.5" r="12.5"/>
<circle class="st1" cx="632" cy="984.4" r="12"/>
<circle class="st1" cx="1219.5" cy="783.7" r="12.5"/>
<circle class="st1" cx="1050.5" cy="1002.5" r="10.5"/>
<text transform="matrix(1 0 0 1 587.4204 1035.2325)"><tspan x="0" y="0" class="st1 st2 st3">Show Provide-Provider</tspan><tspan x="0" y="29" class="st1 st2 st3">Relationships Based on </tspan><tspan x="0" y="58" class="st1 st2 st3">Shared Patients</tspan></text>
<text transform="matrix(1 0 0 1 1086.0505 1010.8524)"><tspan x="0" y="0" class="st1 st2 st3">Uncover Communities </tspan><tspan x="0" y="29" class="st1 st2 st3">of Physicians that have </tspan><tspan x="0" y="58" class="st1 st2 st3">Strong Associations</tspan><tspan x="0" y="89" class="st1 st4 st3">Medical neighborhoods</tspan></text>
<text transform="matrix(1 0 0 1 1253.0505 790.0545)"><tspan x="0" y="0" class="st1 st2 st3">Enable Us to Measure and </tspan><tspan x="0" y="29" class="st1 st2 st3">Manage Perfomance and </tspan><tspan x="0" y="58" class="st1 st2 st3">Outcomes</tspan><tspan x="0" y="89" class="st1 st4 st3">Nascate Performance Metric</tspan></text>
<line class="st19" x1="1009.7" y1="885.1" x2="1419.5" y2="963"/>
<polyline class="st19" points="497.9,928.7 59.5,905.5 191.5,1040.5 499.2,916 632,984.4 998.8,892.5 1050.5,1002.5 1219.5,783.5 
	"/>
<g>
	<circle class="st20" cx="191.6" cy="1040.3" r="50.5"/>
	<circle class="st12" cx="191.6" cy="1040.3" r="40.5"/>
</g>
<g>
	<circle class="st21" cx="1405.8" cy="956.3" r="50.5"/>
	<circle class="st8" cx="1405.8" cy="956.3" r="40.5"/>
</g>
<g>
	<circle class="st22" cx="497.9" cy="928.7" r="88.5"/>
	<g>
		<circle class="st0" cx="497.9" cy="928.7" r="76.5"/>
		<path class="st11" d="M497.9,854.2c41.1,0,74.5,33.4,74.5,74.5s-33.4,74.5-74.5,74.5s-74.5-33.4-74.5-74.5
			S456.9,854.2,497.9,854.2 M497.9,850.2c-43.3,0-78.5,35.2-78.5,78.5s35.2,78.5,78.5,78.5s78.5-35.2,78.5-78.5
			S541.2,850.2,497.9,850.2L497.9,850.2z"/>
	</g>
	<circle class="st11" cx="497.9" cy="928.7" r="63"/>
</g>
<g>
	<circle class="st23" cx="999.1" cy="892.6" r="79.5"/>
	<g>
		<circle class="st0" cx="999.1" cy="892.6" r="68.5"/>
		<path class="st9" d="M999.1,826.1c36.7,0,66.5,29.8,66.5,66.5c0,36.7-29.8,66.5-66.5,66.5c-36.7,0-66.5-29.8-66.5-66.5
			C932.5,855.9,962.4,826.1,999.1,826.1 M999.1,822.1c-38.9,0-70.5,31.6-70.5,70.5s31.6,70.5,70.5,70.5c38.9,0,70.5-31.6,70.5-70.5
			S1037.9,822.1,999.1,822.1L999.1,822.1z"/>
	</g>
	<circle class="st9" cx="999.1" cy="892.6" r="56.6"/>
</g>
<path class="st0" d="M191.6,1009.8c-16.8,0-30.5,13.7-30.5,30.5s13.7,30.5,30.5,30.5s30.5-13.7,30.5-30.5S208.4,1009.8,191.6,1009.8
	z M201.7,1025.1c4.9,3.2,8,8.6,8.3,14.4l-2.5,0.1c-0.3-5-3-9.7-7.2-12.5L201.7,1025.1z M191.6,1017.1c3.4,0,6.2,2.8,6.2,6.2
	c0,3.4-2.8,6.2-6.2,6.2s-6.2-2.8-6.2-6.2C185.5,1019.8,188.2,1017.1,191.6,1017.1z M181.5,1025.1l1.4,2.1c-4.2,2.8-6.9,7.4-7.2,12.5
	l-2.5-0.1C173.5,1033.7,176.6,1028.3,181.5,1025.1z M179.8,1054.5c-2.9,1.7-6.7,0.7-8.4-2.3c-1.7-2.9-0.7-6.7,2.3-8.4
	c3-1.7,6.7-0.6,8.4,2.3C183.8,1049,182.8,1052.8,179.8,1054.5z M191.6,1059c-2.9,0-5.7-0.7-8.3-2l1.1-2.2c4.5,2.3,9.9,2.3,14.4,0
	l1.1,2.2C197.3,1058.3,194.5,1059,191.6,1059z M211.8,1052.2c-1.7,2.9-5.5,4-8.4,2.3c-2.9-1.7-4-5.5-2.3-8.4c1.7-2.9,5.4-4,8.4-2.3
	C212.5,1045.5,213.5,1049.3,211.8,1052.2z"/>
<path class="st0" d="M497.9,887.2c-22.9,0-41.5,18.6-41.5,41.5c0,22.9,18.6,41.5,41.5,41.5c22.9,0,41.5-18.6,41.5-41.5
	C539.4,905.7,520.9,887.2,497.9,887.2z M522.2,938.4h-14.5v14.5h-19.4v-14.5h-14.5V919h14.5v-14.6h19.4V919h14.5V938.4z"/>
<path class="st0" d="M999.1,846c-25.7,0-46.6,20.9-46.6,46.6c0,25.7,20.9,46.6,46.6,46.6c25.7,0,46.6-20.9,46.6-46.6
	C1045.6,866.9,1024.7,846,999.1,846z M995.7,915.3c-5.3,5.3-14,5.3-19.4,0c-5.3-5.3-5.3-14,0-19.4l9.8-9.8c0.8-0.8,1.6-1.4,2.5-2
	c4.2-2.6,9.5-2.7,13.8-0.4c1.1,0.6,2.1,1.4,3.1,2.3c0.7,0.7,1.2,1.4,1.8,2.2l-3.1,3.1c-1.1,1.1-2.8,1.1-3.9,0
	c-0.2-0.2-0.4-0.3-0.6-0.5c-2.5-1.9-6.1-1.8-8.4,0.5l-9.9,9.9c-2.5,2.5-2.5,6.5,0,8.9c2.5,2.5,6.5,2.5,8.9,0l4.9-4.9
	c2.9,1.3,6.1,1.7,9.2,1.3L995.7,915.3z M1021.8,889.2l-9.8,9.8c-0.7,0.7-1.5,1.4-2.4,1.9c-4.2,2.7-9.6,2.8-13.9,0.4
	c-1.1-0.6-2.2-1.4-3.1-2.3c-0.7-0.7-1.2-1.4-1.8-2.1l3.1-3.1c1.1-1.1,2.8-1.1,3.9,0c0.2,0.2,0.4,0.4,0.6,0.5c2.5,1.9,6,1.8,8.3-0.5
	l9.9-9.9c2.5-2.5,2.5-6.5,0-8.9c-2.5-2.5-6.5-2.5-8.9,0l-4.9,4.9c-2.9-1.3-6.1-1.7-9.2-1.3l8.8-8.8c5.3-5.3,14-5.3,19.4,0
	C1027.1,875.2,1027.1,883.9,1021.8,889.2z"/>
<path class="st0" d="M1405.8,925.8c-16.8,0-30.5,13.7-30.5,30.5s13.7,30.5,30.5,30.5s30.5-13.7,30.5-30.5S1422.6,925.8,1405.8,925.8
	z M1396.7,971.8h-6.4v-18.2h6.4V971.8z M1404.9,971.8h-6.4v-11.8h6.4V971.8z M1413.1,971.8h-6.4v-24.6h6.4V971.8z M1421.3,971.8
	h-6.4v-31h6.4V971.8z"/>
</svg>
