<?xml version="1.0" encoding="utf-8"?>
<!-- Generator: Adobe Illustrator 25.4.1, SVG Export Plug-In . SVG Version: 6.00 Build 0)  -->
<svg version="1.1" id="Layer_1" xmlns="http://www.w3.org/2000/svg" xmlns:xlink="http://www.w3.org/1999/xlink" x="0px" y="0px"
	 viewBox="0 0 1600 1137" style="enable-background:new 0 0 1600 1137;" xml:space="preserve">
<style type="text/css">
	.st0{fill:#EBF2FA;}
	.st1{fill:#5E5E5E;}
	.st2{fill:#243F81;}
	.st3{fill:#0CA64C;}
	.st4{fill:#3A3D3F;}
	.st5{fill:#F5871F;}
	.st6{fill:#4359A7;}
	.st7{fill:#1F94C2;}
	.st8{fill:#E65C84;}
	.st9{fill:none;stroke:#12A54E;stroke-width:17;stroke-miterlimit:10;}
	.st10{fill:#263E81;}
	.st11{fill:#12A54E;}
	.st12{font-family:'OpenSans-Bold';}
	.st13{font-size:30px;}
	.st14{font-family:'OpenSans';}
	.st15{fill:#FFFFFF;}
	.st16{font-size:26px;}
	.st17{fill:none;stroke:#3A3D3F;stroke-miterlimit:10;}
	.st18{font-size:22px;}
	.st19{font-size:26.8726px;}
</style>
<rect x="13" y="18" class="st0" width="1574" height="1107"/>
<g>
	<g>
		<text transform="matrix(1 0 0 1 212.4854 98.199)"><tspan x="0" y="0" class="st4 st12 st13">Helen</tspan><tspan x="0" y="40" class="st4 st14 st13">Female, 71</tspan></text>
		<circle class="st2" cx="114.9" cy="109.5" r="53.4"/>
		<g>
			<g>
				<g>
					<path class="st15" d="M144.1,80.3c-7.8-7.8-18.2-12.1-29.3-12.1s-21.4,4.3-29.3,12.1c-7.8,7.8-12.1,18.2-12.1,29.3
						s4.3,21.4,12.1,29.3c7.8,7.8,18.2,12.1,29.3,12.1s21.4-4.3,29.3-12.1c7.8-7.8,12.1-18.2,12.1-29.3S151.9,88.1,144.1,80.3z
						 M114.9,146c-10.8,0-20.5-4.7-27.2-12.2c4.2-11,14.8-18.8,27.2-18.8c-8,0-14.5-6.5-14.5-14.5s6.5-14.5,14.5-14.5
						s14.5,6.5,14.5,14.5s-6.5,14.5-14.5,14.5c12.5,0,23.1,7.8,27.2,18.8C135.4,141.3,125.7,146,114.9,146z"/>
				</g>
			</g>
		</g>
	</g>
	<rect x="810.5" y="202.2" class="st15" width="727.9" height="510"/>
	<g>
		<rect x="61.6" y="202.2" class="st15" width="727.9" height="510"/>
		<g>
			<rect x="89.6" y="385.6" class="st0" width="331.3" height="65.8"/>
			<text transform="matrix(0.9739 0 0 1 111.4239 427.0715)" class="st4 st12 st16">Nascate Persona</text>
			<rect x="430.2" y="385.6" class="st0" width="331.3" height="65.8"/>
			<text transform="matrix(0.9739 0 0 1 470.7916 427.0715)" class="st4 st14 st16">Aging Complex</text>
			<rect x="89.6" y="618.4" class="st0" width="331.3" height="65.8"/>
			<text transform="matrix(0.9739 0 0 1 111.4239 659.8713)" class="st4 st12 st16">Care Density</text>
			<rect x="430.2" y="618.4" class="st0" width="331.3" height="65.8"/>
			<text transform="matrix(0.9739 0 0 1 470.7916 659.8713)" class="st4 st14 st16">Low</text>
			<rect x="89.6" y="230.4" class="st0" width="331.3" height="65.8"/>
			<text transform="matrix(0.9739 0 0 1 111.4239 271.8718)" class="st4 st12 st16">Early Action</text>
			<rect x="430.2" y="230.4" class="st0" width="331.3" height="65.8"/>
			<g>
				<ellipse class="st3" cx="488.5" cy="263.6" rx="15.5" ry="15.9"/>
			</g>
			<rect x="89.6" y="540.8" class="st0" width="331.3" height="65.8"/>
			<text transform="matrix(0.9739 0 0 1 111.4239 582.2717)" class="st4 st12 st16">Mental Health</text>
			<rect x="430.2" y="540.8" class="st0" width="331.3" height="65.8"/>
			<g>
				<ellipse class="st3" cx="488.5" cy="574" rx="15.5" ry="15.9"/>
			</g>
			<rect x="89.6" y="308.1" class="st0" width="331.3" height="65.8"/>
			<text transform="matrix(0.9739 0 0 1 111.4239 349.6248)" class="st4 st12 st16">SCI Score</text>
			<rect x="430.2" y="307.8" class="st0" width="331.3" height="65.8"/>
			<text transform="matrix(0.9739 0 0 1 470.7916 349.6248)" class="st4 st14 st16">High</text>
			<g>
				<ellipse class="st5" cx="556.3" cy="340.7" rx="15.5" ry="15.9"/>
			</g>
			<rect x="89.6" y="463.2" class="st0" width="331.3" height="65.8"/>
			<text transform="matrix(0.9739 0 0 1 111.4239 504.6716)" class="st4 st12 st16">Provider Relationship</text>
			<rect x="430.2" y="463.2" class="st0" width="331.3" height="65.8"/>
			<text transform="matrix(0.9739 0 0 1 470.7916 504.6716)" class="st4 st14 st16">Weak</text>
			<g>
				<ellipse class="st5" cx="566" cy="495.7" rx="15.5" ry="15.9"/>
			</g>
		</g>
	</g>
	<text transform="matrix(1 0 0 1 856.8961 246.8495)" class="st4 st12 st16">Risk Factors Impact</text>
	<g>
		<text transform="matrix(1 0 0 1 856.8965 310.6026)" class="st4 st14 st16">Health Care Days</text>
		<rect x="1190" y="292.5" class="st8" width="302" height="21"/>
		<text transform="matrix(1 0 0 1 856.8965 359.4005)" class="st4 st14 st16">Chronic Cond Count</text>
		<rect x="1190" y="341.3" class="st3" width="151" height="21"/>
		<text transform="matrix(1 0 0 1 856.8965 408.1984)" class="st4 st14 st16">Dependent Burden</text>
		<rect x="1190" y="390.1" class="st7" width="86" height="21"/>
		<text transform="matrix(1 0 0 1 856.8965 456.9964)" class="st4 st14 st16">Social Vulnerability</text>
		<rect x="1190" y="438.9" class="st7" width="75" height="21"/>
		<text transform="matrix(1 0 0 1 856.8965 505.7943)" class="st4 st14 st16">Heart Failure</text>
		<rect x="1190" y="487.7" class="st3" width="58" height="21"/>
		<text transform="matrix(1 0 0 1 856.8965 554.5922)" class="st4 st14 st16">Household Composition</text>
		<rect x="1190" y="536.5" class="st7" width="63" height="21"/>
		<text transform="matrix(1 0 0 1 856.8965 603.3901)" class="st4 st14 st16">Arthritis</text>
		<rect x="1190" y="585.3" class="st3" width="34" height="21"/>
	</g>
	<line class="st17" x1="854" y1="633" x2="1505" y2="633"/>
	<text transform="matrix(1 0 0 1 907.9729 679.3893)" class="st4 st14 st18">Social</text>
	<g>
		<g>
			
				<ellipse transform="matrix(0.9299 -0.3679 0.3679 0.9299 -186.3685 368.3025)" class="st7" cx="872.8" cy="672.9" rx="15.9" ry="15.9"/>
		</g>
	</g>
	<text transform="matrix(1 0 0 1 1084.9729 679.3893)" class="st4 st14 st18">Clinical</text>
	<g>
		
			<ellipse transform="matrix(0.9299 -0.3679 0.3679 0.9299 -173.9539 433.4229)" class="st3" cx="1049.8" cy="672.9" rx="15.9" ry="15.9"/>
	</g>
	<text transform="matrix(1 0 0 1 1282.973 679.3893)" class="st4 st14 st18">Treatment Burden</text>
	<g>
		<g>
			
				<ellipse transform="matrix(0.9299 -0.3679 0.3679 0.9299 -160.0663 506.2695)" class="st8" cx="1247.8" cy="672.9" rx="15.9" ry="15.9"/>
		</g>
	</g>
	<rect x="61.6" y="734.3" class="st15" width="1476.4" height="317"/>
	<text transform="matrix(0.9675 0 0 1 89.5984 779.8288)" class="st4 st12 st19">Relationship Detail</text>
	<rect x="89.6" y="965.6" class="st0" width="331.4" height="65.8"/>
	<g>
		<text transform="matrix(0.9739 0 0 1 111.4239 1007.0715)" class="st4 st14 st16">Events</text>
	</g>
	<g>
		<text transform="matrix(1 0 0 1 447.4239 1097.0715)" class="st4 st14 st18">2018</text>
	</g>
	<g>
		<text transform="matrix(1 0 0 1 738.4238 1097.0715)" class="st4 st14 st18">2019</text>
	</g>
	<g>
		<text transform="matrix(1 0 0 1 1029.4238 1097.0715)" class="st4 st14 st18">2020</text>
	</g>
	<rect x="89.6" y="810.4" class="st0" width="331.4" height="65.8"/>
	<g>
		<text transform="matrix(0.9739 0 0 1 111.4239 851.8718)" class="st4 st14 st16">Attribution</text>
	</g>
	<rect x="89.6" y="888.1" class="st0" width="331.4" height="65.8"/>
	<rect x="430.6" y="965.6" class="st0" width="1081.4" height="65.8"/>
	<rect x="430.6" y="810.4" class="st0" width="1081.4" height="65.8"/>
	<rect x="430.6" y="888.1" class="st0" width="1081.4" height="65.8"/>
	<g>
		<text transform="matrix(0.9739 0 0 1 111.4239 929.6248)" class="st4 st14 st16">Relationship</text>
	</g>
	<text transform="matrix(1 0 0 1 482.9235 778.6965)" class="st4 st14 st18">Dr. N. Landry</text>
	<g>
		<g>
			
				<ellipse transform="matrix(0.9299 -0.3679 0.3679 0.9299 -252.7175 218.8871)" class="st7" cx="447.7" cy="772.3" rx="15.9" ry="15.9"/>
		</g>
	</g>
	<g>
		<g>
			
				<ellipse transform="matrix(0.9299 -0.3679 0.3679 0.9299 -281.6369 364.3314)" class="st7" cx="814.7" cy="920.8" rx="15.9" ry="15.9"/>
		</g>
	</g>
	<g>
		<g>
			
				<ellipse transform="matrix(0.9299 -0.3679 0.3679 0.9299 -278.2878 381.8992)" class="st7" cx="862.5" cy="920.8" rx="15.9" ry="15.9"/>
		</g>
	</g>
	<g>
		<g>
			
				<ellipse transform="matrix(0.9299 -0.3679 0.3679 0.9299 -274.9386 399.4669)" class="st7" cx="910.2" cy="920.8" rx="15.9" ry="15.9"/>
		</g>
	</g>
	<g>
		<g>
			
				<ellipse transform="matrix(0.9299 -0.3679 0.3679 0.9299 -271.5895 417.0348)" class="st7" cx="958" cy="920.8" rx="15.9" ry="15.9"/>
		</g>
	</g>
	<g>
		<g>
			
				<ellipse transform="matrix(0.9299 -0.3679 0.3679 0.9299 -268.2403 434.6025)" class="st7" cx="1005.7" cy="920.8" rx="15.9" ry="15.9"/>
		</g>
	</g>
	<g>
		<g>
			
				<ellipse transform="matrix(0.9299 -0.3679 0.3679 0.9299 -264.8912 452.1703)" class="st7" cx="1053.5" cy="920.8" rx="15.9" ry="15.9"/>
		</g>
	</g>
	<g>
		<g>
			
				<ellipse transform="matrix(0.9299 -0.3679 0.3679 0.9299 -261.542 469.7381)" class="st7" cx="1101.2" cy="920.8" rx="15.9" ry="15.9"/>
		</g>
	</g>
	<g>
		<g>
			
				<ellipse transform="matrix(0.9299 -0.3679 0.3679 0.9299 -258.1929 487.3059)" class="st7" cx="1149" cy="920.8" rx="15.9" ry="15.9"/>
		</g>
	</g>
	<g>
		<g>
			
				<ellipse transform="matrix(0.9299 -0.3679 0.3679 0.9299 -254.8437 504.8737)" class="st7" cx="1196.7" cy="920.8" rx="15.9" ry="15.9"/>
		</g>
	</g>
	<g>
		
			<ellipse transform="matrix(0.9299 -0.3679 0.3679 0.9299 -251.0211 524.9249)" class="st5" cx="1251.2" cy="920.8" rx="15.9" ry="15.9"/>
	</g>
	<g>
		
			<ellipse transform="matrix(0.9299 -0.3679 0.3679 0.9299 -247.672 542.4927)" class="st5" cx="1299" cy="920.8" rx="15.9" ry="15.9"/>
	</g>
	<g>
		
			<ellipse transform="matrix(0.9299 -0.3679 0.3679 0.9299 -244.3228 560.0605)" class="st5" cx="1346.7" cy="920.8" rx="15.9" ry="15.9"/>
	</g>
	<g>
		<g>
			
				<ellipse transform="matrix(0.9299 -0.3679 0.3679 0.9299 -252.9398 358.8605)" class="st7" cx="814.7" cy="842.8" rx="15.9" ry="15.9"/>
		</g>
	</g>
	<g>
		<g>
			
				<ellipse transform="matrix(0.9299 -0.3679 0.3679 0.9299 -249.5907 376.4283)" class="st7" cx="862.5" cy="842.8" rx="15.9" ry="15.9"/>
		</g>
	</g>
	<g>
		<g>
			
				<ellipse transform="matrix(0.9299 -0.3679 0.3679 0.9299 -246.2415 393.9961)" class="st7" cx="910.2" cy="842.8" rx="15.9" ry="15.9"/>
		</g>
	</g>
	<g>
		<g>
			
				<ellipse transform="matrix(0.9299 -0.3679 0.3679 0.9299 -242.8923 411.5639)" class="st7" cx="958" cy="842.8" rx="15.9" ry="15.9"/>
		</g>
	</g>
	<g>
		<g>
			
				<ellipse transform="matrix(0.9299 -0.3679 0.3679 0.9299 -239.5432 429.1317)" class="st7" cx="1005.7" cy="842.8" rx="15.9" ry="15.9"/>
		</g>
	</g>
	<g>
		<g>
			
				<ellipse transform="matrix(0.9299 -0.3679 0.3679 0.9299 -236.194 446.6995)" class="st7" cx="1053.5" cy="842.8" rx="15.9" ry="15.9"/>
		</g>
	</g>
	<g>
		<g>
			
				<ellipse transform="matrix(0.9299 -0.3679 0.3679 0.9299 -232.8449 464.2673)" class="st7" cx="1101.2" cy="842.8" rx="15.9" ry="15.9"/>
		</g>
	</g>
	<g>
		<g>
			
				<ellipse transform="matrix(0.9299 -0.3679 0.3679 0.9299 -229.4957 481.8351)" class="st7" cx="1149" cy="842.8" rx="15.9" ry="15.9"/>
		</g>
	</g>
	<g>
		<g>
			
				<ellipse transform="matrix(0.9299 -0.3679 0.3679 0.9299 -226.1466 499.4028)" class="st7" cx="1196.7" cy="842.8" rx="15.9" ry="15.9"/>
		</g>
	</g>
	<g>
		<g>
			
				<ellipse transform="matrix(0.9299 -0.3679 0.3679 0.9299 -334.9529 240.6652)" class="st7" cx="463.7" cy="998.8" rx="15.9" ry="15.9"/>
		</g>
	</g>
	<g>
		
			<ellipse transform="matrix(0.9299 -0.3679 0.3679 0.9299 -333.3398 249.1272)" class="st3" cx="486.7" cy="998.8" rx="15.9" ry="15.9"/>
	</g>
	<g>
		
			<ellipse transform="matrix(0.9299 -0.3679 0.3679 0.9299 -327.7987 278.1922)" class="st3" cx="565.7" cy="998.8" rx="15.9" ry="15.9"/>
	</g>
	<g>
		
			<ellipse transform="matrix(0.9299 -0.3679 0.3679 0.9299 -326.6765 284.0788)" class="st3" cx="581.7" cy="998.8" rx="15.9" ry="15.9"/>
	</g>
	<g>
		
			<ellipse transform="matrix(0.9299 -0.3679 0.3679 0.9299 -325.5543 289.9654)" class="st3" cx="597.7" cy="998.8" rx="15.9" ry="15.9"/>
	</g>
	<g>
		
			<ellipse transform="matrix(0.9299 -0.3679 0.3679 0.9299 -321.8369 309.4647)" class="st3" cx="650.7" cy="998.8" rx="15.9" ry="15.9"/>
	</g>
	<g>
		
			<ellipse transform="matrix(0.9299 -0.3679 0.3679 0.9299 -320.7147 315.3513)" class="st3" cx="666.7" cy="998.8" rx="15.9" ry="15.9"/>
	</g>
	<g>
		
			<ellipse transform="matrix(0.9299 -0.3679 0.3679 0.9299 -319.5924 321.2379)" class="st7" cx="682.7" cy="998.8" rx="15.9" ry="15.9"/>
	</g>
	<text transform="matrix(1 0 0 1 1037.9236 778.6965)" class="st4 st14 st18">Other Providers</text>
	<g>
		
			<ellipse transform="matrix(0.9299 -0.3679 0.3679 0.9299 -213.7902 423.0782)" class="st3" cx="1002.7" cy="772.3" rx="15.9" ry="15.9"/>
	</g>
	<text transform="matrix(1 0 0 1 741.9235 778.6965)" class="st4 st14 st18">Dr. D. Hamilton</text>
	<g>
		
			<ellipse transform="matrix(0.9299 -0.3679 0.3679 0.9299 -234.5514 314.1763)" class="st5" cx="706.7" cy="772.3" rx="15.9" ry="15.9"/>
	</g>
	<g>
		
			<ellipse transform="matrix(0.9299 -0.3679 0.3679 0.9299 -314.1917 349.5671)" class="st3" cx="759.7" cy="998.8" rx="15.9" ry="15.9"/>
	</g>
	<g>
		
			<ellipse transform="matrix(0.9299 -0.3679 0.3679 0.9299 -312.9573 356.0424)" class="st3" cx="777.3" cy="998.8" rx="15.9" ry="15.9"/>
	</g>
	<g>
		
			<ellipse transform="matrix(0.9299 -0.3679 0.3679 0.9299 -311.7228 362.5176)" class="st5" cx="794.9" cy="998.8" rx="15.9" ry="15.9"/>
	</g>
	<g>
		
			<ellipse transform="matrix(0.9299 -0.3679 0.3679 0.9299 -310.4884 368.9928)" class="st3" cx="812.5" cy="998.8" rx="15.9" ry="15.9"/>
	</g>
	<g>
		
			<ellipse transform="matrix(0.9299 -0.3679 0.3679 0.9299 -309.2539 375.4681)" class="st3" cx="830.1" cy="998.8" rx="15.9" ry="15.9"/>
	</g>
	<g>
		
			<ellipse transform="matrix(0.9299 -0.3679 0.3679 0.9299 -308.0194 381.9433)" class="st5" cx="847.7" cy="998.8" rx="15.9" ry="15.9"/>
	</g>
	<g>
		
			<ellipse transform="matrix(0.9299 -0.3679 0.3679 0.9299 -293.8513 456.2615)" class="st3" cx="1049.7" cy="998.8" rx="15.9" ry="15.9"/>
	</g>
	<g>
		
			<ellipse transform="matrix(0.9299 -0.3679 0.3679 0.9299 -292.6169 462.7368)" class="st3" cx="1067.3" cy="998.8" rx="15.9" ry="15.9"/>
	</g>
	<g>
		
			<ellipse transform="matrix(0.9299 -0.3679 0.3679 0.9299 -291.3824 469.212)" class="st5" cx="1084.9" cy="998.8" rx="15.9" ry="15.9"/>
	</g>
	<g>
		
			<ellipse transform="matrix(0.9299 -0.3679 0.3679 0.9299 -290.1479 475.6873)" class="st3" cx="1102.5" cy="998.8" rx="15.9" ry="15.9"/>
	</g>
	<g>
		
			<ellipse transform="matrix(0.9299 -0.3679 0.3679 0.9299 -288.9135 482.1625)" class="st3" cx="1120.1" cy="998.8" rx="15.9" ry="15.9"/>
	</g>
	<g>
		
			<ellipse transform="matrix(0.9299 -0.3679 0.3679 0.9299 -287.679 488.6378)" class="st5" cx="1137.7" cy="998.8" rx="15.9" ry="15.9"/>
	</g>
	<g>
		
			<ellipse transform="matrix(0.9299 -0.3679 0.3679 0.9299 -280.5669 525.944)" class="st3" cx="1239.1" cy="998.8" rx="15.9" ry="15.9"/>
	</g>
	<g>
		
			<ellipse transform="matrix(0.9299 -0.3679 0.3679 0.9299 -277.5089 541.985)" class="st5" cx="1282.7" cy="998.8" rx="15.9" ry="15.9"/>
	</g>
	<g>
		
			<ellipse transform="matrix(0.9299 -0.3679 0.3679 0.9299 -269.6252 583.3383)" class="st3" cx="1395.1" cy="998.8" rx="15.9" ry="15.9"/>
	</g>
	<g>
		
			<ellipse transform="matrix(0.9299 -0.3679 0.3679 0.9299 -268.3907 589.8135)" class="st5" cx="1412.7" cy="998.8" rx="15.9" ry="15.9"/>
	</g>
	<g>
		
			<ellipse transform="matrix(0.9299 -0.3679 0.3679 0.9299 -304.0215 402.9143)" class="st3" cx="904.7" cy="998.8" rx="15.9" ry="15.9"/>
	</g>
	<g>
		
			<ellipse transform="matrix(0.9299 -0.3679 0.3679 0.9299 -302.8993 408.8009)" class="st3" cx="920.7" cy="998.8" rx="15.9" ry="15.9"/>
	</g>
	<g>
		
			<ellipse transform="matrix(0.9299 -0.3679 0.3679 0.9299 -301.7771 414.6875)" class="st5" cx="936.7" cy="998.8" rx="15.9" ry="15.9"/>
	</g>
</g>
</svg>
