<?xml version="1.0" encoding="utf-8"?>
<!-- Generator: Adobe Illustrator 25.4.1, SVG Export Plug-In . SVG Version: 6.00 Build 0)  -->
<svg version="1.1" id="Layer_1" xmlns="http://www.w3.org/2000/svg" xmlns:xlink="http://www.w3.org/1999/xlink" x="0px" y="0px"
	 viewBox="0 0 1600 808" style="enable-background:new 0 0 1600 808;" xml:space="preserve">
<style type="text/css">
	.st0{fill:#EBF2FA;}
	.st1{fill:#5E5E5E;}
	.st2{fill:#243F81;}
	.st3{fill:#0CA64C;}
	.st4{fill:#3A3D3F;}
	.st5{fill:#F5871F;}
	.st6{fill:#4359A7;}
	.st7{fill:#1F94C2;}
	.st8{fill:#E65C84;}
	.st9{font-family:'OpenSans-Bold';}
	.st10{font-size:30px;}
	.st11{font-family:'OpenSans';}
	.st12{fill:none;stroke:#12A54E;stroke-width:17;stroke-miterlimit:10;}
	.st13{fill:#263E81;}
	.st14{fill:#12A54E;}
	.st15{font-size:26px;}
	.st16{fill:#FFFFFF;}
	.st17{fill:none;stroke:#3A3D3F;stroke-miterlimit:10;}
</style>
<rect x="13" y="15" class="st0" width="1574" height="777"/>
<text transform="matrix(1 0 0 1 462.749 88.8488)"><tspan x="0" y="0" class="st4 st9 st10">Understanding the Ecosystem Offers Insights</tspan><tspan x="77.9" y="40" class="st4 st11 st10">A Framework for Person Centric Care</tspan></text>
<text transform="matrix(1 0 0 1 703.2363 411.0833)"><tspan x="0" y="0" class="st4 st9 st15">Understanding</tspan><tspan x="56.3" y="44" class="st4 st9 st15">of Life</tspan></text>
<text transform="matrix(1 0 0 1 544.0113 678.5765)"><tspan x="0" y="0" class="st4 st9 st15">Understand and Measure Relationships</tspan><tspan x="61.9" y="44" class="st4 st11 st15">Matching Members to Providers</tspan></text>
<g>
	<g>
		<circle class="st16" cx="800" cy="285" r="78.8"/>
		<path class="st7" d="M800,208.2c42.4,0,76.8,34.4,76.8,76.8s-34.4,76.8-76.8,76.8s-76.8-34.4-76.8-76.8S757.6,208.2,800,208.2
			 M800,204.2c-44.5,0-80.8,36.2-80.8,80.8s36.2,80.8,80.8,80.8s80.8-36.2,80.8-80.8S844.5,204.2,800,204.2L800,204.2z"/>
	</g>
	<circle class="st7" cx="800" cy="285" r="66.8"/>
	<path class="st0" d="M799.3,245.2c-22.9,0-41.5,18.6-41.5,41.5c0,22.9,18.6,41.5,41.5,41.5c22.9,0,41.5-18.6,41.5-41.5
		C840.8,263.8,822.2,245.2,799.3,245.2z M809,290.4h-3.2l-2.1,23.8H795l-2.1-23.8h-3.2v-13.9c0-3.6,2.9-6.4,6.4-6.4h3.2
		c-2.4,0-4.3-1.9-4.3-4.3v-2.1c0-2.4,1.9-4.3,4.3-4.3s4.3,1.9,4.3,4.3v2.1c0,2.4-1.9,4.3-4.3,4.3h3.2c3.6,0,6.4,2.9,6.4,6.4V290.4z"
		/>
</g>
<g>
	<g>
		<text transform="matrix(1 0 0 1 299.5596 465.0835)"><tspan x="0" y="0" class="st4 st9 st15">Understanding</tspan><tspan x="18.6" y="44" class="st4 st9 st15">of Providers</tspan></text>
		<g>
			<circle class="st16" cx="396.1" cy="332.9" r="78.8"/>
			<path class="st5" d="M396.1,256.1c42.4,0,76.8,34.4,76.8,76.8s-34.4,76.8-76.8,76.8s-76.8-34.4-76.8-76.8
				S353.7,256.1,396.1,256.1 M396.1,252.1c-44.5,0-80.8,36.2-80.8,80.8s36.2,80.8,80.8,80.8s80.8-36.2,80.8-80.8
				S440.6,252.1,396.1,252.1L396.1,252.1z"/>
		</g>
		<circle class="st5" cx="396.1" cy="332.9" r="66.8"/>
		<path class="st0" d="M396.1,291.4c-22.9,0-41.5,18.6-41.5,41.5c0,22.9,18.6,41.5,41.5,41.5c22.9,0,41.5-18.6,41.5-41.5
			C437.6,309.9,419,291.4,396.1,291.4z M420.4,342.6h-14.5v14.5h-19.4v-14.5h-14.5v-19.4h14.5v-14.6h19.4v14.6h14.5V342.6z"/>
	</g>
	<g>
		<text transform="matrix(1 0 0 1 1126.1338 462.7258)"><tspan x="0" y="0" class="st4 st9 st15">Clinical Event</tspan><tspan x="42" y="44" class="st4 st9 st15">Details</tspan></text>
		<g>
			<circle class="st16" cx="1213.1" cy="332.9" r="79.2"/>
			<path class="st3" d="M1213.1,256.1c42.4,0,76.8,34.4,76.8,76.8s-34.4,76.8-76.8,76.8s-76.8-34.4-76.8-76.8
				S1170.7,256.1,1213.1,256.1 M1213.1,251.1c-45.1,0-81.8,36.7-81.8,81.8s36.7,81.8,81.8,81.8s81.8-36.7,81.8-81.8
				S1258.2,251.1,1213.1,251.1L1213.1,251.1z"/>
		</g>
		<circle class="st3" cx="1213.1" cy="332.9" r="66.8"/>
		<g>
			<g>
				<circle class="st0" cx="1213.1" cy="315.5" r="1.9"/>
				<rect x="1205.1" y="335.6" class="st0" width="6.8" height="6.1"/>
				<rect x="1205.1" y="343.7" class="st0" width="6.8" height="6.1"/>
				<rect x="1205.1" y="327.5" class="st0" width="6.8" height="6.1"/>
				<path class="st0" d="M1202.3,313.6c-1,0-1.9,0.8-1.9,1.9c0,1,0.8,1.9,1.9,1.9s1.9-0.8,1.9-1.9S1203.4,313.6,1202.3,313.6z"/>
				<rect x="1196" y="343.7" class="st0" width="6.8" height="6.1"/>
				<rect x="1196" y="335.6" class="st0" width="6.8" height="6.1"/>
				<rect x="1223.3" y="327.5" class="st0" width="6.8" height="6.1"/>
				<rect x="1223.3" y="335.6" class="st0" width="6.8" height="6.1"/>
				<polygon class="st0" points="1214.2,341.7 1221.1,341.7 1221.1,341.7 1221.1,335.6 1214.2,335.6 				"/>
				<path class="st0" d="M1213.1,291.4c-22.9,0-41.5,18.6-41.5,41.5c0,22.9,18.6,41.5,41.5,41.5s41.5-18.6,41.5-41.5
					C1254.6,309.9,1236,291.4,1213.1,291.4z M1235.4,350.7c0,2.4-2,4.5-4.5,4.5h-35.6c-2.4,0-4.5-2-4.5-4.5v-35.6
					c0-2.4,2-4.5,4.5-4.5h35.6c2.4,0,4.5,2,4.5,4.5V350.7z"/>
				<circle class="st0" cx="1223.9" cy="315.5" r="1.9"/>
				<polygon class="st0" points="1214.2,333.6 1221.1,333.6 1221.1,333.6 1221.1,327.5 1214.2,327.5 				"/>
			</g>
		</g>
	</g>
</g>
<g>
	<line class="st17" x1="396.5" y1="539.5" x2="712.3" y2="598.9"/>
	<line class="st17" x1="1216.3" y1="539.5" x2="900.5" y2="598.9"/>
</g>
<line class="st17" x1="800" y1="471.3" x2="800" y2="583"/>
<g>
	<g>
		<circle class="st16" cx="887.7" cy="598.9" r="22.6"/>
		
			<ellipse transform="matrix(0.9299 -0.3679 0.3679 0.9299 -158.0736 368.5957)" class="st3" cx="887.7" cy="598.9" rx="15.9" ry="15.9"/>
	</g>
	<g>
		<circle class="st16" cx="712.3" cy="598.9" r="22.6"/>
		
			<ellipse transform="matrix(0.9299 -0.3679 0.3679 0.9299 -170.3742 304.0733)" class="st5" cx="712.3" cy="598.9" rx="15.9" ry="15.9"/>
	</g>
	<g>
		<ellipse class="st16" cx="800" cy="598.9" rx="22.6" ry="22.6"/>
		<ellipse class="st7" cx="800" cy="598.9" rx="15.9" ry="15.9"/>
	</g>
</g>
</svg>
