<?xml version="1.0" encoding="utf-8"?>
<!-- Generator: Adobe Illustrator 16.0.0, SVG Export Plug-In . SVG Version: 6.00 Build 0)  -->
<!DOCTYPE svg PUBLIC "-//W3C//DTD SVG 1.1//EN" "http://www.w3.org/Graphics/SVG/1.1/DTD/svg11.dtd">
<svg version="1.1" id="Layer_1" xmlns="http://www.w3.org/2000/svg" xmlns:xlink="http://www.w3.org/1999/xlink" x="0px" y="0px"
	 width="134px" height="156px" viewBox="0 0 134 156" enable-background="new 0 0 134 156" xml:space="preserve">
<path fill="#2C91CF" d="M119.309,41.173c-5.597-9.669-16.132-14.751-26.599-13.866c-4.462-9.51-14.131-16.115-25.305-16.08
	c-11.209,0-20.86,6.588-25.323,16.097C31.617,26.439,21.08,31.521,15.484,41.19c-5.596,9.687-4.71,21.356,1.293,29.98
	c-6.003,8.606-6.889,20.276-1.293,29.962c5.596,9.669,16.132,14.751,26.598,13.866c3.843,8.181,11.546,14.201,20.754,15.725v11.369
	l20.028-15.672c1.188-0.797,2.32-1.683,3.365-2.639l0.018-0.018c2.691-2.462,4.905-5.437,6.463-8.784
	c10.467,0.886,21.021-4.196,26.599-13.865c5.596-9.669,4.71-21.339-1.293-29.962C124.019,62.529,124.904,50.859,119.309,41.173z
	 M104.062,71.613c8.588,4.958,11.528,15.938,6.57,24.526c-4.959,8.57-15.938,11.51-24.509,6.552
	c-0.283-0.159-0.549-0.318-0.814-0.496c0.018,0.319,0.035,0.638,0.035,0.956c0,9.917-8.04,17.938-17.938,17.938
	c-9.917,0-17.938-8.039-17.938-17.938c0-0.318,0.018-0.637,0.018-0.956c-0.266,0.178-0.531,0.337-0.814,0.496
	c-8.571,4.958-19.55,2.019-24.508-6.552c-4.958-8.589-2.019-19.568,6.57-24.526c0.283-0.159,0.566-0.319,0.85-0.46
	c-0.284-0.142-0.567-0.301-0.85-0.46c-8.589-4.958-11.528-15.938-6.57-24.508c4.958-8.588,15.938-11.528,24.508-6.57
	c0.283,0.159,0.549,0.336,0.814,0.514c-0.018-0.319-0.018-0.638-0.018-0.957c-0.018-9.934,8.022-17.974,17.921-17.974
	c9.916,0,17.938,8.04,17.938,17.938c0,0.319-0.018,0.637-0.036,0.956c0.266-0.177,0.531-0.336,0.815-0.496
	c8.589-4.958,19.567-2.019,24.526,6.57c4.958,8.588,2.018,19.567-6.57,24.526c-0.283,0.159-0.566,0.319-0.832,0.46
	C103.513,71.294,103.796,71.454,104.062,71.613z"/>
<path fill="#253E81" d="M42.064,114.98c-10.465,0.886-21.002-4.196-26.598-13.865c-5.596-9.687-4.71-21.356,1.292-29.962h14.787
	c-0.283,0.142-0.567,0.283-0.85,0.46c-8.588,4.958-11.528,15.938-6.57,24.526c4.958,8.57,15.938,11.51,24.508,6.552
	c0.284-0.159,0.549-0.318,0.815-0.496L42.064,114.98z M92.71,27.307c10.467-0.886,21.002,4.197,26.599,13.866
	c5.596,9.686,4.71,21.356-1.293,29.98h-14.769c0.283-0.142,0.566-0.301,0.832-0.46c8.589-4.958,11.528-15.938,6.57-24.526
	c-4.959-8.571-15.938-11.528-24.509-6.552c-0.283,0.159-0.549,0.319-0.814,0.496L92.71,27.307z"/>
</svg>
